<?xml version="1.0" encoding="utf-8" ?>
<svg baseProfile="full" height="480px" version="1.1" width="480px" xmlns="http://www.w3.org/2000/svg" xmlns:ev="http://www.w3.org/2001/xml-events" xmlns:xlink="http://www.w3.org/1999/xlink"><defs /><g id="rect_group"><rect fill="#c35252" height="8" rx="4" ry="4" stroke="none" stroke-width="2" transform="rotate(-112.5,155.80964487968026,36.74650284751692)" width="20" x="145.80964487968026" y="32.74650284751692" /><rect fill="#c35252" height="8" rx="4" ry="4" stroke="none" stroke-width="2" transform="rotate(-116.25,142.69648815181975,42.687996862808546)" width="20" x="132.69648815181975" y="38.687996862808546" /><rect fill="#c35252" height="8" rx="4" ry="4" stroke="none" stroke-width="2" transform="rotate(-120.0,130.00000000000006,49.47441116742348)" width="20" x="120.00000000000006" y="45.47441116742348" /><rect fill="#c35252" height="8" rx="4" ry="4" stroke="none" stroke-width="2" transform="rotate(-123.75,117.7745487356875,57.07668529344008)" width="20" x="107.7745487356875" y="53.07668529344008" /><rect fill="#c35252" height="8" rx="4" ry="4" stroke="none" stroke-width="2" transform="rotate(-127.5,106.07248561808146,65.46226513592828)" width="20" x="96.07248561808146" y="61.46226513592828" /><rect fill="#c35252" height="8" rx="4" ry="4" stroke="none" stroke-width="2" transform="rotate(-131.25,94.94392067798486,74.59524235462499)" width="20" x="84.94392067798486" y="70.59524235462499" /><rect fill="#c35252" height="8" rx="4" ry="4" stroke="none" stroke-width="2" transform="rotate(-135.0,84.43650813895957,84.43650813895954)" width="20" x="74.43650813895957" y="80.43650813895954" /><rect fill="#c35252" height="8" rx="4" ry="4" stroke="none" stroke-width="2" transform="rotate(-138.75,74.59524235462499,94.94392067798483)" width="20" x="64.59524235462499" y="90.94392067798483" /><rect fill="#c35252" height="8" rx="4" ry="4" stroke="none" stroke-width="2" transform="rotate(-142.5,65.46226513592828,106.0724856180814)" width="20" x="55.46226513592828" y="102.0724856180814" /><rect fill="#c35252" height="8" rx="4" ry="4" stroke="none" stroke-width="2" transform="rotate(-146.25,57.07668529344002,117.77454873568752)" width="20" x="47.07668529344002" y="113.77454873568752" /><rect fill="#c35252" height="8" rx="4" ry="4" stroke="none" stroke-width="2" transform="rotate(-150.0,49.47441116742348,130.0)" width="20" x="39.47441116742348" y="126.0" /><rect fill="#c35252" height="8" rx="4" ry="4" stroke="none" stroke-width="2" transform="rotate(-153.75,42.687996862808575,142.69648815181972)" width="20" x="32.687996862808575" y="138.69648815181972" /><rect fill="#ffffff" height="8" rx="4" ry="4" stroke="none" stroke-width="2" transform="rotate(-157.5,36.74650284751692,155.8096448796802)" width="20" x="26.746502847516922" y="151.8096448796802" /><rect fill="#ffffff" height="8" rx="4" ry="4" stroke="none" stroke-width="2" transform="rotate(-161.25,31.675371511076776,169.28331763330442)" width="20" x="21.675371511076776" y="165.28331763330442" /><rect fill="#ffffff" height="8" rx="4" ry="4" stroke="none" stroke-width="2" transform="rotate(-165.0,27.496318216405,183.05981007744538)" width="20" x="17.496318216405" y="179.05981007744538" /><rect fill="#ffffff" height="8" rx="4" ry="4" stroke="none" stroke-width="2" transform="rotate(-168.75,24.227238311289312,197.0801291564518)" width="20" x="14.227238311289312" y="193.0801291564518" /><rect fill="#ffffff" height="8" rx="4" ry="4" stroke="none" stroke-width="2" transform="rotate(-172.5,21.88213049776172,211.28423771158864)" width="20" x="11.882130497761722" y="207.28423771158864" /><rect fill="#ffffff" height="8" rx="4" ry="4" stroke="none" stroke-width="2" transform="rotate(-176.25,20.47103688750724,225.61131156936852)" width="20" x="10.471036887507239" y="221.61131156936852" /><rect fill="#ffffff" height="8" rx="4" ry="4" stroke="none" stroke-width="2" transform="rotate(-180.0,20.0,239.99999999999997)" width="20" x="10.0" y="235.99999999999997" /><rect fill="#ffffff" height="8" rx="4" ry="4" stroke="none" stroke-width="2" transform="rotate(-183.75,20.47103688750724,254.38868843063142)" width="20" x="10.471036887507239" y="250.38868843063142" /><rect fill="#ffffff" height="8" rx="4" ry="4" stroke="none" stroke-width="2" transform="rotate(-187.5,21.882130497761693,268.71576228841127)" width="20" x="11.882130497761693" y="264.71576228841127" /><rect fill="#ffffff" height="8" rx="4" ry="4" stroke="none" stroke-width="2" transform="rotate(-191.25,24.227238311289312,282.9198708435482)" width="20" x="14.227238311289312" y="278.9198708435482" /><rect fill="#ffffff" height="8" rx="4" ry="4" stroke="none" stroke-width="2" transform="rotate(-195.0,27.496318216404973,296.94018992255457)" width="20" x="17.496318216404973" y="292.94018992255457" /><rect fill="#ffffff" height="8" rx="4" ry="4" stroke="none" stroke-width="2" transform="rotate(-198.75,31.675371511076747,310.7166823666955)" width="20" x="21.675371511076747" y="306.7166823666955" /><rect fill="#ffffff" height="8" rx="4" ry="4" stroke="none" stroke-width="2" transform="rotate(-202.5,36.746502847516894,324.19035512031974)" width="20" x="26.746502847516894" y="320.19035512031974" /><rect fill="#ffffff" height="8" rx="4" ry="4" stroke="none" stroke-width="2" transform="rotate(-206.25,42.687996862808546,337.3035118481802)" width="20" x="32.687996862808546" y="333.3035118481802" /><rect fill="#ffffff" height="8" rx="4" ry="4" stroke="none" stroke-width="2" transform="rotate(-210.0,49.47441116742351,350.0)" width="20" x="39.47441116742351" y="346.0" /><rect fill="#ffffff" height="8" rx="4" ry="4" stroke="none" stroke-width="2" transform="rotate(-213.75,57.07668529344005,362.2254512643125)" width="20" x="47.07668529344005" y="358.2254512643125" /><rect fill="#ffffff" height="8" rx="4" ry="4" stroke="none" stroke-width="2" transform="rotate(-217.5,65.46226513592828,373.9275143819185)" width="20" x="55.46226513592828" y="369.9275143819185" /><rect fill="#ffffff" height="8" rx="4" ry="4" stroke="none" stroke-width="2" transform="rotate(-221.25,74.59524235462496,385.05607932201514)" width="20" x="64.59524235462496" y="381.05607932201514" /><rect fill="#ffffff" height="8" rx="4" ry="4" stroke="none" stroke-width="2" transform="rotate(-225.0,84.43650813895951,395.56349186104046)" width="20" x="74.43650813895951" y="391.56349186104046" /><rect fill="#ffffff" height="8" rx="4" ry="4" stroke="none" stroke-width="2" transform="rotate(-228.75,94.9439206779848,405.404757645375)" width="20" x="84.9439206779848" y="401.404757645375" /><rect fill="#ffffff" height="8" rx="4" ry="4" stroke="none" stroke-width="2" transform="rotate(-232.5,106.0724856180814,414.5377348640717)" width="20" x="96.0724856180814" y="410.5377348640717" /><rect fill="#ffffff" height="8" rx="4" ry="4" stroke="none" stroke-width="2" transform="rotate(-236.25,117.77454873568752,422.92331470655995)" width="20" x="107.77454873568752" y="418.92331470655995" /><rect fill="#ffffff" height="8" rx="4" ry="4" stroke="none" stroke-width="2" transform="rotate(-240.0,129.9999999999999,430.52558883257643)" width="20" x="119.99999999999989" y="426.52558883257643" /><rect fill="#ffffff" height="8" rx="4" ry="4" stroke="none" stroke-width="2" transform="rotate(-243.75,142.69648815181972,437.3120031371914)" width="20" x="132.69648815181972" y="433.3120031371914" /><rect fill="#ffffff" height="8" rx="4" ry="4" stroke="none" stroke-width="2" transform="rotate(-247.5,155.80964487968032,443.2534971524831)" width="20" x="145.80964487968032" y="439.2534971524831" /></g></svg>