<?xml version="1.0" encoding="UTF-8" standalone="no"?>
<svg
   height="40"
   viewBox="0 -960 1600 1600"
   width="40"
   fill="#e3e3e3"
   version="1.1"
   id="svg1"
   sodipodi:docname="coffeepressed.svg"
   inkscape:version="1.4.2 (f4327f4, 2025-05-13)"
   xml:space="preserve"
   inkscape:export-filename="coffeepressed.png"
   inkscape:export-xdpi="96"
   inkscape:export-ydpi="96"
   xmlns:inkscape="http://www.inkscape.org/namespaces/inkscape"
   xmlns:sodipodi="http://sodipodi.sourceforge.net/DTD/sodipodi-0.dtd"
   xmlns="http://www.w3.org/2000/svg"
   xmlns:svg="http://www.w3.org/2000/svg"><defs
     id="defs1" /><sodipodi:namedview
     id="namedview1"
     pagecolor="#ffffff"
     bordercolor="#000000"
     borderopacity="0.25"
     inkscape:showpageshadow="2"
     inkscape:pageopacity="0.0"
     inkscape:pagecheckerboard="0"
     inkscape:deskcolor="#d1d1d1"
     inkscape:zoom="11.902964"
     inkscape:cx="3.4025138"
     inkscape:cy="13.946106"
     inkscape:window-width="1920"
     inkscape:window-height="1010"
     inkscape:window-x="-6"
     inkscape:window-y="-6"
     inkscape:window-maximized="1"
     inkscape:current-layer="svg1" /><path
     style="fill:#417d94;fill-opacity:1;stroke-width:160;stroke-linecap:round;stroke-linejoin:round;paint-order:markers stroke fill"
     id="path2"
     sodipodi:type="arc"
     sodipodi:cx="800"
     sodipodi:cy="-160"
     sodipodi:rx="800"
     sodipodi:ry="800"
     sodipodi:start="4.7211912"
     sodipodi:end="4.712389"
     sodipodi:open="true"
     sodipodi:arc-type="arc"
     d="M 807.04168,-959.96901 A 800,800 0 0 1 1599.9826,-154.7187 800,800 0 0 1 796.47912,639.99225 800,800 0 0 1 0.001937,-161.76045 800,800 0 0 1 800,-960" /><path
     d="M 720,80 C 642,80 575.83333,52.833333 521.5,-1.5 467.16667,-55.833333 440,-122 440,-200 v -240 c 0,-22 7.83333,-40.83333 23.5,-56.5 15.66667,-15.66667 34.5,-23.5 56.5,-23.5 h 500 c 38.6667,0 71.6667,13.66667 99,41 27.3333,27.33333 41,60.33333 41,99 0,38.66667 -13.6667,71.66667 -41,99 -27.3333,27.33333 -60.3333,41 -99,41 h -20 v 40 c 0,78 -27.16667,144.166667 -81.5,198.5 C 864.16667,52.833333 798,80 720,80 Z M 520,-320 H 920 V -440 H 520 Z m 480,0 h 20 c 16.6667,0 30.8333,-5.83333 42.5,-17.5 11.6667,-11.66667 17.5,-25.83333 17.5,-42.5 0,-16.66667 -5.8333,-30.83333 -17.5,-42.5 -11.6667,-11.66667 -25.8333,-17.5 -42.5,-17.5 h -20 z M 440,200 v -80 h 640 v 80 z"
     id="path1"
     style="fill:#2f2f2f;fill-opacity:1"
     sodipodi:nodetypes="ssssssssssscsssccccccsssssccccccc" /></svg>
