<?xml version="1.0" encoding="UTF-8" standalone="no"?>
<svg
   height="40"
   viewBox="0 -960 1600 1600"
   width="40"
   fill="#e3e3e3"
   version="1.1"
   id="svg1"
   sodipodi:docname="coffeeunpressed.svg"
   inkscape:version="1.4.2 (f4327f4, 2025-05-13)"
   inkscape:export-filename="coffeeunpressed.png"
   inkscape:export-xdpi="96"
   inkscape:export-ydpi="96"
   xmlns:inkscape="http://www.inkscape.org/namespaces/inkscape"
   xmlns:sodipodi="http://sodipodi.sourceforge.net/DTD/sodipodi-0.dtd"
   xmlns="http://www.w3.org/2000/svg"
   xmlns:svg="http://www.w3.org/2000/svg">
  <defs
     id="defs1" />
  <sodipodi:namedview
     id="namedview1"
     pagecolor="#ffffff"
     bordercolor="#000000"
     borderopacity="0.25"
     inkscape:showpageshadow="2"
     inkscape:pageopacity="0.0"
     inkscape:pagecheckerboard="0"
     inkscape:deskcolor="#d1d1d1"
     inkscape:zoom="11.902964"
     inkscape:cx="3.4025139"
     inkscape:cy="13.946106"
     inkscape:window-width="1920"
     inkscape:window-height="1010"
     inkscape:window-x="1913"
     inkscape:window-y="-6"
     inkscape:window-maximized="1"
     inkscape:current-layer="svg1" />
  <path
     d="M 720,80 Q 603,80 521.5,-1.5 440,-83 440,-200 v -240 q 0,-33 23.5,-56.5 Q 487,-520 520,-520 h 500 q 58,0 99,41 41,41 41,99 0,58 -41,99 -41,41 -99,41 h -20 v 40 Q 1000,-83 918.5,-1.5 837,80 720,80 Z M 520,-320 H 920 V -440 H 520 Z M 720,0 Q 803,0 861.5,-58.5 920,-117 920,-200 v -40 H 520 v 40 q 0,83 58.5,141.5 Q 637,0 720,0 Z m 280,-320 h 20 q 25,0 42.5,-17.5 17.5,-17.5 17.5,-42.5 0,-25 -17.5,-42.5 Q 1045,-440 1020,-440 h -20 z M 440,200 v -80 h 640 v 80 z m 280,-440 z"
     id="path1"
     style="fill:#ffffff;fill-opacity:1" />
</svg>
