<?xml version="1.0" encoding="UTF-8" standalone="no"?>
<svg
   viewBox="0 0 24 24"
   version="1.1"
   id="svg1"
   sodipodi:docname="kettle-steam.svg"
   inkscape:version="1.4.2 (f4327f4, 2025-05-13)"
   xmlns:inkscape="http://www.inkscape.org/namespaces/inkscape"
   xmlns:sodipodi="http://sodipodi.sourceforge.net/DTD/sodipodi-0.dtd"
   xmlns="http://www.w3.org/2000/svg"
   xmlns:svg="http://www.w3.org/2000/svg">
  <defs
     id="defs1" />
  <sodipodi:namedview
     id="namedview1"
     pagecolor="#ffffff"
     bordercolor="#000000"
     borderopacity="0.25"
     inkscape:showpageshadow="2"
     inkscape:pageopacity="0.0"
     inkscape:pagecheckerboard="0"
     inkscape:deskcolor="#d1d1d1"
     inkscape:zoom="33.666667"
     inkscape:cx="12.014851"
     inkscape:cy="12.029703"
     inkscape:window-width="1920"
     inkscape:window-height="1010"
     inkscape:window-x="-6"
     inkscape:window-y="-6"
     inkscape:window-maximized="1"
     inkscape:current-layer="svg1" />
  <path
     d="M19 11L16 8L13.9 10.1C12.58 9.38 11.05 9 9.5 9C7.65 9 5.95 9.53 4.55 10.41C4.19 9.97 4 9.5 4 9C4 7.21 6.46 5.75 9.5 5.75C10.93 5.75 12.3 6.08 13.33 6.67L15.35 4.65C13.77 3.59 11.68 3 9.5 3C4.81 3 1 5.69 1 9C1 10.19 1.5 11.34 2.44 12.33C1.53 13.5 1 14.96 1 16.5V20C1 21.11 1.89 22 3 22H16C17.11 22 18 21.11 18 20V16.5C18 15.28 17.66 14.07 17 13L19 11M5 17.5V20H3V17.5C3 13.91 5.91 11 9.5 11C9.84 11 10.17 11.04 10.5 11.09C7.39 11.57 5 14.25 5 17.5M23 7.3C23 8.93 21.91 10.6 20.38 10.97L19.71 10.29L19 9.6H19.75C20.75 9.6 21.5 8.22 21.5 7.2C21.5 6.18 20.65 5.14 19.65 5.14V3.64C21.5 3.64 23 5.45 23 7.3M17.65 6.73C17.03 6.12 16.65 5.28 16.65 4.35C16.65 2.5 18.15 1 20 1V2.5C19 2.5 18.15 3.33 18.15 4.35C18.15 5.37 19 6.2 20 6.2V7.7C19.18 7.7 18.42 7.95 17.79 8.38L16.72 7.31C17 7.09 17.32 6.89 17.65 6.73Z"
     id="path1"
     style="fill:#161d1f;fill-opacity:1" />
</svg>
