<?xml version="1.0" encoding="utf-8" ?>
<svg baseProfile="full" height="480px" version="1.1" width="480px" xmlns="http://www.w3.org/2000/svg" xmlns:ev="http://www.w3.org/2001/xml-events" xmlns:xlink="http://www.w3.org/1999/xlink"><defs /><g id="rect_group"><rect fill="#8c8c8c" height="8" rx="4" ry="4" stroke="none" stroke-width="2" transform="rotate(-86.25,254.38868843063148,20.47103688750724)" width="20" x="244.38868843063148" y="16.47103688750724" /><rect fill="#8c8c8c" height="8" rx="4" ry="4" stroke="none" stroke-width="2" transform="rotate(-82.5,268.7157622884114,21.88213049776172)" width="20" x="258.7157622884114" y="17.88213049776172" /><rect fill="#8c8c8c" height="8" rx="4" ry="4" stroke="none" stroke-width="2" transform="rotate(-78.75,282.9198708435482,24.227238311289312)" width="20" x="272.9198708435482" y="20.227238311289312" /><rect fill="#8c8c8c" height="8" rx="4" ry="4" stroke="none" stroke-width="2" transform="rotate(-75.0,296.94018992255457,27.496318216404973)" width="20" x="286.94018992255457" y="23.496318216404973" /><rect fill="#8c8c8c" height="8" rx="4" ry="4" stroke="none" stroke-width="2" transform="rotate(-71.25,310.7166823666956,31.675371511076776)" width="20" x="300.7166823666956" y="27.675371511076776" /><rect fill="#8c8c8c" height="8" rx="4" ry="4" stroke="none" stroke-width="2" transform="rotate(-67.5,324.19035512031974,36.74650284751692)" width="20" x="314.19035512031974" y="32.74650284751692" /><rect fill="#8c8c8c" height="8" rx="4" ry="4" stroke="none" stroke-width="2" transform="rotate(-63.75,337.3035118481803,42.687996862808546)" width="20" x="327.3035118481803" y="38.687996862808546" /><rect fill="#8c8c8c" height="8" rx="4" ry="4" stroke="none" stroke-width="2" transform="rotate(-60.0,350.0,49.47441116742351)" width="20" x="340.0" y="45.47441116742351" /><rect fill="#8c8c8c" height="8" rx="4" ry="4" stroke="none" stroke-width="2" transform="rotate(-56.25,362.2254512643125,57.07668529344005)" width="20" x="352.2254512643125" y="53.07668529344005" /><rect fill="#8c8c8c" height="8" rx="4" ry="4" stroke="none" stroke-width="2" transform="rotate(-52.5,373.9275143819185,65.46226513592828)" width="20" x="363.9275143819185" y="61.46226513592828" /><rect fill="#8c8c8c" height="8" rx="4" ry="4" stroke="none" stroke-width="2" transform="rotate(-48.75,385.05607932201514,74.59524235462499)" width="20" x="375.05607932201514" y="70.59524235462499" /><rect fill="#8c8c8c" height="8" rx="4" ry="4" stroke="none" stroke-width="2" transform="rotate(-45.0,395.56349186104046,84.43650813895954)" width="20" x="385.56349186104046" y="80.43650813895954" /><rect fill="#8c8c8c" height="8" rx="4" ry="4" stroke="none" stroke-width="2" transform="rotate(-41.25,405.404757645375,94.94392067798486)" width="20" x="395.404757645375" y="90.94392067798486" /><rect fill="#8c8c8c" height="8" rx="4" ry="4" stroke="none" stroke-width="2" transform="rotate(-37.5,414.5377348640717,106.07248561808146)" width="20" x="404.5377348640717" y="102.07248561808146" /><rect fill="#8c8c8c" height="8" rx="4" ry="4" stroke="none" stroke-width="2" transform="rotate(-33.75,422.92331470655995,117.77454873568752)" width="20" x="412.92331470655995" y="113.77454873568752" /><rect fill="#8c8c8c" height="8" rx="4" ry="4" stroke="none" stroke-width="2" transform="rotate(-30.0,430.52558883257655,130.0)" width="20" x="420.52558883257655" y="126.0" /><rect fill="#8c8c8c" height="8" rx="4" ry="4" stroke="none" stroke-width="2" transform="rotate(-26.25,437.3120031371914,142.69648815181972)" width="20" x="427.3120031371914" y="138.69648815181972" /><rect fill="#8c8c8c" height="8" rx="4" ry="4" stroke="none" stroke-width="2" transform="rotate(-22.5,443.2534971524831,155.80964487968026)" width="20" x="433.2534971524831" y="151.80964487968026" /><rect fill="#8c8c8c" height="8" rx="4" ry="4" stroke="none" stroke-width="2" transform="rotate(-18.75,448.3246284889233,169.28331763330445)" width="20" x="438.3246284889233" y="165.28331763330445" /><rect fill="#8c8c8c" height="8" rx="4" ry="4" stroke="none" stroke-width="2" transform="rotate(-15.0,452.503681783595,183.05981007744543)" width="20" x="442.503681783595" y="179.05981007744543" /><rect fill="#8c8c8c" height="8" rx="4" ry="4" stroke="none" stroke-width="2" transform="rotate(-11.25,455.7727616887107,197.0801291564518)" width="20" x="445.7727616887107" y="193.0801291564518" /><rect fill="#8c8c8c" height="8" rx="4" ry="4" stroke="none" stroke-width="2" transform="rotate(-7.5,458.11786950223825,211.28423771158864)" width="20" x="448.11786950223825" y="207.28423771158864" /><rect fill="#8c8c8c" height="8" rx="4" ry="4" stroke="none" stroke-width="2" transform="rotate(-3.75,459.52896311249276,225.61131156936852)" width="20" x="449.52896311249276" y="221.61131156936852" /><rect fill="#8c8c8c" height="8" rx="4" ry="4" stroke="none" stroke-width="2" transform="rotate(0.0,460.0,240.0)" width="20" x="450.0" y="236.0" /><rect fill="#8c8c8c" height="8" rx="4" ry="4" stroke="none" stroke-width="2" transform="rotate(3.75,459.52896311249276,254.38868843063148)" width="20" x="449.52896311249276" y="250.38868843063148" /><rect fill="#8c8c8c" height="8" rx="4" ry="4" stroke="none" stroke-width="2" transform="rotate(7.5,458.11786950223825,268.7157622884113)" width="20" x="448.11786950223825" y="264.7157622884113" /><rect fill="#8c8c8c" height="8" rx="4" ry="4" stroke="none" stroke-width="2" transform="rotate(11.25,455.7727616887107,282.9198708435482)" width="20" x="445.7727616887107" y="278.9198708435482" /><rect fill="#8c8c8c" height="8" rx="4" ry="4" stroke="none" stroke-width="2" transform="rotate(15.0,452.503681783595,296.94018992255457)" width="20" x="442.503681783595" y="292.94018992255457" /><rect fill="#8c8c8c" height="8" rx="4" ry="4" stroke="none" stroke-width="2" transform="rotate(18.75,448.3246284889233,310.7166823666955)" width="20" x="438.3246284889233" y="306.7166823666955" /><rect fill="#8c8c8c" height="8" rx="4" ry="4" stroke="none" stroke-width="2" transform="rotate(22.5,443.2534971524831,324.19035512031974)" width="20" x="433.2534971524831" y="320.19035512031974" /><rect fill="#8c8c8c" height="8" rx="4" ry="4" stroke="none" stroke-width="2" transform="rotate(26.25,437.3120031371914,337.3035118481803)" width="20" x="427.3120031371914" y="333.3035118481803" /></g></svg>