<?xml version="1.0" encoding="UTF-8" standalone="no"?>
<svg
   height="40"
   viewBox="0 -960 1600 1600"
   width="40"
   fill="#e3e3e3"
   version="1.1"
   id="svg1"
   sodipodi:docname="scalePressed.svg"
   inkscape:version="1.4.2 (f4327f4, 2025-05-13)"
   inkscape:export-filename="scalePressed.png"
   inkscape:export-xdpi="96"
   inkscape:export-ydpi="96"
   xmlns:inkscape="http://www.inkscape.org/namespaces/inkscape"
   xmlns:sodipodi="http://sodipodi.sourceforge.net/DTD/sodipodi-0.dtd"
   xmlns="http://www.w3.org/2000/svg"
   xmlns:svg="http://www.w3.org/2000/svg">
  <defs
     id="defs1" />
  <sodipodi:namedview
     id="namedview1"
     pagecolor="#ffffff"
     bordercolor="#000000"
     borderopacity="0.25"
     inkscape:showpageshadow="2"
     inkscape:pageopacity="0.0"
     inkscape:pagecheckerboard="0"
     inkscape:deskcolor="#d1d1d1"
     showgrid="true"
     inkscape:zoom="23.805928"
     inkscape:cx="23.8386"
     inkscape:cy="14.450182"
     inkscape:window-width="1920"
     inkscape:window-height="1010"
     inkscape:window-x="-6"
     inkscape:window-y="-6"
     inkscape:window-maximized="1"
     inkscape:current-layer="svg1">
    <inkscape:grid
       id="grid1"
       units="px"
       originx="0"
       originy="0"
       spacingx="40"
       spacingy="40"
       empcolor="#0099e5"
       empopacity="0.30196078"
       color="#0099e5"
       opacity="0.14901961"
       empspacing="5"
       enabled="true"
       visible="true" />
  </sodipodi:namedview>
  <path
     style="fill:#417d94;fill-opacity:1;stroke:none;stroke-width:160.001;stroke-linecap:round;stroke-linejoin:round;stroke-opacity:1;paint-order:markers stroke fill"
     id="path2"
     sodipodi:type="arc"
     sodipodi:cx="800"
     sodipodi:cy="-160"
     sodipodi:rx="800"
     sodipodi:ry="800"
     sodipodi:start="4.7211912"
     sodipodi:end="4.712389"
     sodipodi:open="true"
     sodipodi:arc-type="arc"
     d="M 807.04168,-959.96901 A 800,800 0 0 1 1599.9826,-154.7187 800,800 0 0 1 796.47912,639.99225 800,800 0 0 1 0.001937,-161.76045 800,800 0 0 1 800,-960" />
  <path
     d="m 400,240 c 0,-74 9.83333,-137.16667 29.5,-189.5 19.66667,-52.3333333 44.83333,-95.833333 75.5,-130.5 30.66667,-34.66667 65,-61.5 103,-80.5 38,-19 75.33333,-32.16667 112,-39.5 v -120 c -91.33333,-11.33333 -167.5,-39.5 -228.5,-84.5 -61,-45 -91.5,-96.83333 -91.5,-155.5 h 800 c 0,58.66667 -30.5,110.5 -91.5,155.5 -61,45 -137.16667,73.16667 -228.5,84.5 v 120 c 36.66667,7.33333 74,20.5 112,39.5 38,19 72.3333,45.83333 103,80.5 30.6667,34.666667 55.8333,78.1666667 75.5,130.5 19.6667,52.33333 29.5,115.5 29.5,189.5 H 960 v -80 h 155 C 1103,58.666667 1065.1667,-14.666667 1001.5,-60 937.83333,-105.33333 870.66667,-128 800,-128 729.33333,-128 662.16667,-105.33333 598.5,-60 534.83333,-14.666667 497,58.666667 485,160 h 155 v 80 z m 400,0 c -22,0 -40.83333,-7.83333 -56.5,-23.5 C 727.83333,200.83333 720,182 720,160 c 0,-11.33333 2.16667,-21.66667 6.5,-31 4.33333,-9.33333 10.16667,-17.66667 17.5,-25 C 760,88 787,71.166667 825,53.5 863,35.833333 908,18 960,0 c -18.66667,52 -36.66667,97 -54,135 -17.33333,38 -34,65 -50,81 -7.33333,7.33333 -15.66667,13.16667 -25,17.5 -9.33333,4.33333 -19.66667,6.5 -31,6.5 z"
     id="path1"
     style="fill:#2f2f2f;fill-opacity:1"
     sodipodi:nodetypes="csssccsccsccsssccccsssccccsssssscssss" />
</svg>
