<?xml version="1.0" encoding="UTF-8" standalone="no"?>
<svg
   height="40"
   viewBox="0 -960 1600 1600"
   width="40"
   fill="#e3e3e3"
   version="1.1"
   id="svg1"
   sodipodi:docname="steamunPressed.svg"
   inkscape:version="1.4.2 (f4327f4, 2025-05-13)"
   xml:space="preserve"
   inkscape:export-filename="steamunpressed.png"
   inkscape:export-xdpi="96"
   inkscape:export-ydpi="96"
   xmlns:inkscape="http://www.inkscape.org/namespaces/inkscape"
   xmlns:sodipodi="http://sodipodi.sourceforge.net/DTD/sodipodi-0.dtd"
   xmlns="http://www.w3.org/2000/svg"
   xmlns:svg="http://www.w3.org/2000/svg"><defs
     id="defs1" /><sodipodi:namedview
     id="namedview1"
     pagecolor="#ffffff"
     bordercolor="#000000"
     borderopacity="0.25"
     inkscape:showpageshadow="2"
     inkscape:pageopacity="0.0"
     inkscape:pagecheckerboard="0"
     inkscape:deskcolor="#d1d1d1"
     inkscape:zoom="11.902964"
     inkscape:cx="3.4025139"
     inkscape:cy="13.946106"
     inkscape:window-width="1920"
     inkscape:window-height="1010"
     inkscape:window-x="-6"
     inkscape:window-y="-6"
     inkscape:window-maximized="1"
     inkscape:current-layer="svg1" /><g
     style="fill:#ffffff;fill-opacity:1"
     id="g2"
     transform="translate(320,320)"><path
       d="m 532,-131 q -6,5 -12.5,8 -6.5,3 -14.5,3 -8,0 -16,-3.5 -8,-3.5 -14,-9.5 -41,-44 -60.5,-90 -19.5,-46 -19.5,-97 0,-37 11,-78 11,-41 38,-106 23,-57 32,-87.5 9,-30.5 9,-56.5 0,-34 -15,-63.5 -15,-29.5 -47,-59.5 -6,-6 -9.5,-14 -3.5,-8 -3.5,-16 0,-8 3,-14.5 3,-6.5 8,-12.5 6,-6 13.5,-9 7.5,-3 15.5,-3 8,0 15,3 7,3 13,8 44,41 65.5,86 21.5,45 21.5,95 0,35 -10.5,73.5 Q 544,-536 518,-474 q -25,60 -34,92 -9,32 -9,61 0,35 14.5,67.5 14.5,32.5 44.5,65.5 5,6 8,13 3,7 3,15 0,8 -3,15.5 -3,7.5 -10,13.5 z m 195,0 q -6,5 -12.5,8 -6.5,3 -14.5,3 -8,0 -16,-3.5 -8,-3.5 -14,-9.5 -41,-44 -60.5,-89.5 Q 590,-268 590,-319 q 0,-37 11,-79 11,-42 38,-106 23,-57 32,-87 9,-30 9,-56 0,-34 -15,-64.5 -15,-30.5 -47,-59.5 -6,-6 -9,-13.5 -3,-7.5 -3,-15.5 0,-8 2.5,-14.5 2.5,-6.5 7.5,-12.5 6,-6 14,-9.5 8,-3.5 16,-3.5 8,0 14.5,3 6.5,3 12.5,8 44,41 65.5,86 21.5,45 21.5,95 0,35 -10.5,73.5 Q 739,-536 713,-473 q -25,60 -34,92 -9,32 -9,60 0,35 15,68.5 15,33.5 45,65.5 5,6 7.5,13 2.5,7 2.5,14 0,8 -3,16 -3,8 -10,13 z m -390,0 q -6,5 -12.5,8 -6.5,3 -14.5,3 -8,0 -16,-3.5 -8,-3.5 -14,-9.5 -41,-44 -60.5,-89.5 Q 200,-268 200,-319 q 0,-37 11,-79 11,-42 38,-106 23,-57 32,-87 9,-30 9,-56 0,-34 -15,-64.5 -15,-30.5 -47,-59.5 -7,-6 -10,-13.5 -3,-7.5 -3,-15.5 0,-8 3,-15 3,-7 8,-13 6,-6 13.5,-9 7.5,-3 15.5,-3 8,0 15,3 7,3 13,8 44,41 65.5,85.5 21.5,44.5 21.5,95.5 0,35 -10,73.5 -10,38.5 -36,100.5 -25,60 -34,92 -9,32 -9,61 0,35 14.5,68.5 14.5,33.5 44.5,65.5 5,6 7.5,13 2.5,7 2.5,14 0,8 -3,16 -3,8 -10,13 z"
       id="path1-1"
       style="fill:#ffffff;fill-opacity:1" /></g></svg>
